# xmcd
#
# Track frame offsets: 
#        150
#        16495
#        36005
#
# Disc length: 737 seconds
#
# Revision: 0
# Processed by: cddbd v1.5.2PL0 Copyright (c) Steve Scherf et al.
# Submitted via: ExactAudioCopy v0.99pb3
#
DISCID=1a02df03
DTITLE=Brendan Croker - No Money at all
DYEAR=1989
DGENRE=Blues
TTITLE0=No Money at all
TTITLE1=Mister
TTITLE2=Joshua gone Barbados (Live at Leeds)
EXTD=
EXTT0=
EXTT1=
EXTT2=
PLAYORDER=
